<svg width="109" height="101" viewBox="0 0 109 101" fill="none" xmlns="http://www.w3.org/2000/svg">
<path d="M7.82596 90.5952L2.55734 61.4719C1.22532 54.1089 6.88312 47.3357 14.3657 47.3357H87.704C93.395 47.3357 98.3033 51.333 99.4555 56.9061L105.477 86.0294C107.016 93.4762 101.33 100.459 93.7253 100.459H19.6343C13.8309 100.459 8.85907 96.306 7.82596 90.5952Z" fill="url(#paint0_linear_16_319)" stroke="white" stroke-opacity="0.6"/>
<path opacity="0.6" d="M16.6139 86.4327L11.8823 62.4327C10.9075 57.4884 14.6918 52.8853 19.7312 52.8853H83.5893C87.3301 52.8853 90.5714 55.4775 91.3937 59.1268L96.8013 83.1268C97.9284 88.1291 94.1246 92.8853 88.9969 92.8853H24.4629C20.6412 92.8853 17.3532 90.1822 16.6139 86.4327Z" fill="url(#paint1_linear_16_319)"/>
<ellipse cx="52.2191" cy="49.0174" rx="37.7039" ry="35.1903" transform="rotate(28.8566 52.2191 49.0174)" fill="#4F4F4F"/>
<ellipse cx="53.8652" cy="46.308" rx="37.303" ry="32.0228" transform="rotate(28.8566 53.8652 46.308)" fill="url(#paint2_linear_16_319)"/>
<mask id="path-5-inside-1_16_319" fill="white">
<path fill-rule="evenodd" clip-rule="evenodd" d="M55.0258 28.2445C53.1862 26.5588 50.8083 25.6118 48.4153 25.6118C46.0222 25.6118 43.8101 26.5588 42.2654 28.2445C40.7208 29.9302 39.9701 32.2165 40.1787 34.6004C40.3873 36.9844 41.538 39.2706 43.3776 40.9563C45.2172 42.642 47.595 43.5891 49.9881 43.5891C52.3811 43.5891 54.5933 42.642 56.138 40.9563C57.6826 39.2706 58.4332 36.9844 58.2246 34.6004C58.0161 32.2165 56.8654 29.9302 55.0258 28.2445ZM69.2136 57.072C69.6067 61.5663 51.5609 61.5662 51.5609 61.5662C51.5609 61.5662 33.515 61.5663 33.1218 57.072C32.6499 51.6788 40.9362 45.8362 50.1847 45.8362C54.3434 45.8362 58.5143 47.0176 61.8885 48.8082C63.7194 47.8533 65.986 47.2407 68.3534 47.2407C74.1338 47.2407 79.9516 50.8924 80.2465 54.2631C80.4919 57.0679 69.2466 57.072 69.2136 57.072ZM69.4431 35.0281C68.7342 34.7458 67.9881 34.6005 67.2475 34.6005C65.752 34.6005 64.3693 35.1924 63.4039 36.2459C62.4385 37.2995 61.9694 38.7284 62.0997 40.2184C62.2301 41.7083 62.9492 43.1372 64.099 44.1908C65.2488 45.2444 66.735 45.8363 68.2306 45.8363C68.9711 45.8363 69.6917 45.691 70.3512 45.4086C71.0107 45.1263 71.5962 44.7125 72.0743 44.1908C72.5523 43.6691 72.9135 43.0498 73.1373 42.3683C73.361 41.6867 73.443 40.9561 73.3784 40.2184C73.3139 39.4806 73.1041 38.7501 72.7611 38.0685C72.418 37.3869 71.9485 36.7676 71.3792 36.2459C70.8099 35.7243 70.152 35.3104 69.4431 35.0281Z"/>
</mask>
<path fill-rule="evenodd" clip-rule="evenodd" d="M55.0258 28.2445C53.1862 26.5588 50.8083 25.6118 48.4153 25.6118C46.0222 25.6118 43.8101 26.5588 42.2654 28.2445C40.7208 29.9302 39.9701 32.2165 40.1787 34.6004C40.3873 36.9844 41.538 39.2706 43.3776 40.9563C45.2172 42.642 47.595 43.5891 49.9881 43.5891C52.3811 43.5891 54.5933 42.642 56.138 40.9563C57.6826 39.2706 58.4332 36.9844 58.2246 34.6004C58.0161 32.2165 56.8654 29.9302 55.0258 28.2445ZM69.2136 57.072C69.6067 61.5663 51.5609 61.5662 51.5609 61.5662C51.5609 61.5662 33.515 61.5663 33.1218 57.072C32.6499 51.6788 40.9362 45.8362 50.1847 45.8362C54.3434 45.8362 58.5143 47.0176 61.8885 48.8082C63.7194 47.8533 65.986 47.2407 68.3534 47.2407C74.1338 47.2407 79.9516 50.8924 80.2465 54.2631C80.4919 57.0679 69.2466 57.072 69.2136 57.072ZM69.4431 35.0281C68.7342 34.7458 67.9881 34.6005 67.2475 34.6005C65.752 34.6005 64.3693 35.1924 63.4039 36.2459C62.4385 37.2995 61.9694 38.7284 62.0997 40.2184C62.2301 41.7083 62.9492 43.1372 64.099 44.1908C65.2488 45.2444 66.735 45.8363 68.2306 45.8363C68.9711 45.8363 69.6917 45.691 70.3512 45.4086C71.0107 45.1263 71.5962 44.7125 72.0743 44.1908C72.5523 43.6691 72.9135 43.0498 73.1373 42.3683C73.361 41.6867 73.443 40.9561 73.3784 40.2184C73.3139 39.4806 73.1041 38.7501 72.7611 38.0685C72.418 37.3869 71.9485 36.7676 71.3792 36.2459C70.8099 35.7243 70.152 35.3104 69.4431 35.0281Z" fill="url(#paint3_linear_16_319)"/>
<path d="M55.0258 28.2445L55.6713 27.5401L55.6713 27.5401L55.0258 28.2445ZM42.2654 28.2445L41.4967 27.5401L41.4967 27.5401L42.2654 28.2445ZM43.3776 40.9563L42.7321 41.6607L43.3776 40.9563ZM56.138 40.9563L56.9067 41.6607H56.9067L56.138 40.9563ZM51.5609 61.5662L51.4738 60.57H51.4737L51.5609 61.5662ZM69.2136 57.072L69.1263 56.0758L68.1265 56.076L68.2136 57.072L69.2136 57.072ZM61.8885 48.8082L61.4768 49.6779L61.9614 49.9351L62.4141 49.699L61.8885 48.8082ZM69.4431 35.0281L69.1409 35.9485L69.1409 35.9485L69.4431 35.0281ZM63.4039 36.2459L64.1726 36.9504L64.1726 36.9504L63.4039 36.2459ZM64.099 44.1908L64.7445 43.4864L64.7445 43.4864L64.099 44.1908ZM70.3512 45.4086L69.8881 44.4882L69.888 44.4882L70.3512 45.4086ZM72.0743 44.1908L71.3055 43.4864L71.3055 43.4864L72.0743 44.1908ZM73.1373 42.3683L74.0945 42.7495L74.0945 42.7494L73.1373 42.3683ZM72.7611 38.0685L73.6516 37.6873L73.6516 37.6872L72.7611 38.0685ZM71.3792 36.2459L70.7337 36.9504L70.7337 36.9504L71.3792 36.2459ZM48.5025 26.608C50.6302 26.608 52.7446 27.4501 54.3803 28.9489L55.6713 27.5401C53.6278 25.6676 50.9864 24.6156 48.3281 24.6156L48.5025 26.608ZM43.0342 28.9489C44.4076 27.4501 46.3746 26.608 48.5025 26.608L48.3281 24.6156C45.6699 24.6156 43.2126 25.6676 41.4967 27.5401L43.0342 28.9489ZM41.1787 34.6004C40.9933 32.4807 41.6607 30.4478 43.0342 28.9489L41.4967 27.5401C39.7809 29.4126 38.947 31.9523 39.1787 34.6004H41.1787ZM44.0231 40.2519C42.3873 38.753 41.3642 36.7201 41.1787 34.6004H39.1787C39.4104 37.2486 40.6886 39.7882 42.7321 41.6607L44.0231 40.2519ZM49.9009 42.5929C47.7731 42.5929 45.6588 41.7508 44.0231 40.2519L42.7321 41.6607C44.7756 43.5332 47.417 44.5853 50.0753 44.5853L49.9009 42.5929ZM55.3692 40.2519C53.9958 41.7508 52.0287 42.5929 49.9009 42.5929L50.0753 44.5853C52.7335 44.5853 55.1908 43.5332 56.9067 41.6607L55.3692 40.2519ZM57.2246 34.6004C57.4101 36.7202 56.7427 38.753 55.3692 40.2519L56.9067 41.6607C58.6225 39.7882 59.4563 37.2486 59.2246 34.6004H57.2246ZM54.3803 28.9489C56.0161 30.4478 57.0392 32.4807 57.2246 34.6004H59.2246C58.9929 31.9523 57.7148 29.4126 55.6713 27.5401L54.3803 28.9489ZM51.5609 61.5662C51.6481 62.5624 51.6482 62.5624 51.6485 62.5624C51.6487 62.5624 51.649 62.5624 51.6494 62.5624C51.6501 62.5624 51.6511 62.5624 51.6523 62.5624C51.6548 62.5624 51.6584 62.5624 51.6631 62.5624C51.6725 62.5624 51.6861 62.5624 51.7038 62.5623C51.7394 62.5621 51.7914 62.5619 51.859 62.5613C51.994 62.5602 52.1908 62.558 52.4405 62.5535C52.9399 62.5446 53.6512 62.5268 54.5031 62.4914C56.2043 62.4205 58.4773 62.2785 60.7452 61.993C62.9981 61.7094 65.3093 61.2768 67.0539 60.603C67.9231 60.2674 68.7173 59.8475 69.292 59.3052C69.8787 58.7517 70.2955 58.0078 70.2136 57.0721L68.2136 57.072C68.23 57.2598 68.1689 57.4991 67.8439 57.8058C67.507 58.1237 66.9558 58.4412 66.1885 58.7375C64.66 59.3278 62.5335 59.7378 60.3241 60.016C58.1297 60.2923 55.9158 60.4311 54.2457 60.5007C53.4119 60.5354 52.7166 60.5528 52.2305 60.5614C51.9876 60.5658 51.7971 60.5679 51.668 60.569C51.6034 60.5695 51.5542 60.5698 51.5215 60.5699C51.5051 60.57 51.4928 60.57 51.4848 60.57C51.4808 60.57 51.4779 60.57 51.4761 60.57C51.4751 60.57 51.4745 60.57 51.4741 60.57C51.4739 60.57 51.4738 60.57 51.4737 60.57C51.4737 60.57 51.4738 60.57 51.5609 61.5662ZM32.1218 57.072C32.2037 58.0077 32.7506 58.7516 33.4341 59.3052C34.1037 59.8475 34.9713 60.2673 35.8993 60.603C37.7617 61.2768 40.1486 61.7094 42.4512 61.993C44.769 62.2785 47.0669 62.4205 48.7805 62.4914C49.6386 62.5268 50.3531 62.5446 50.854 62.5535C51.1045 62.558 51.3017 62.5602 51.437 62.5613C51.5046 62.5619 51.5567 62.5621 51.5923 62.5623C51.61 62.5624 51.6236 62.5624 51.633 62.5624C51.6377 62.5624 51.6413 62.5624 51.6438 62.5624C51.645 62.5624 51.646 62.5624 51.6467 62.5624C51.6471 62.5624 51.6474 62.5624 51.6476 62.5624C51.6479 62.5624 51.6481 62.5624 51.5609 61.5662C51.4737 60.57 51.4738 60.57 51.4738 60.57C51.4737 60.57 51.4736 60.57 51.4734 60.57C51.473 60.57 51.4724 60.57 51.4714 60.57C51.4696 60.57 51.4666 60.57 51.4626 60.57C51.4546 60.57 51.4424 60.57 51.426 60.5699C51.3932 60.5698 51.344 60.5695 51.2793 60.569C51.15 60.5679 50.9591 60.5658 50.7154 60.5614C50.2279 60.5528 49.5295 60.5354 48.6896 60.5007C47.0074 60.4311 44.7692 60.2923 42.5263 60.016C40.2683 59.7378 38.07 59.3278 36.4383 58.7375C35.6191 58.4411 35.0124 58.1236 34.6199 57.8057C34.2412 57.4991 34.1382 57.2598 34.1218 57.072H32.1218ZM50.0975 44.84C45.2744 44.84 40.7102 46.3594 37.3964 48.5921C34.1396 50.7863 31.8405 53.8562 32.1218 57.072H34.1218C33.9313 54.8945 35.5393 52.3466 38.6198 50.2712C41.6432 48.2343 45.8464 46.8324 50.2719 46.8324L50.0975 44.84ZM62.3001 47.9386C58.7797 46.0703 54.4377 44.84 50.0975 44.84L50.2719 46.8324C54.2492 46.8324 58.249 47.9649 61.4768 49.6779L62.3001 47.9386ZM68.2663 46.2445C65.732 46.2445 63.3166 46.8984 61.3628 47.9175L62.4141 49.699C64.1222 48.8082 66.2399 48.2369 68.4406 48.2369L68.2663 46.2445ZM81.2465 54.2631C81.0537 52.0586 79.1342 50.0419 76.8218 48.6483C74.4456 47.2162 71.3553 46.2445 68.2663 46.2445L68.4406 48.2369C71.1319 48.2369 73.8407 49.0911 75.8922 50.3275C78.0076 51.6023 79.1445 53.0968 79.2465 54.2631H81.2465ZM69.301 58.0682C69.327 58.0682 72.1973 58.0674 75.0453 57.7078C76.4596 57.5292 77.9357 57.2545 79.0641 56.8178C79.6253 56.6006 80.166 56.3191 80.5689 55.9382C80.9838 55.546 81.3099 54.987 81.2465 54.2631H79.2465C79.2467 54.2649 79.2484 54.2694 79.2398 54.2886C79.2287 54.3135 79.1978 54.3659 79.1196 54.4399C78.9544 54.5961 78.6566 54.775 78.1975 54.9527C77.2854 55.3057 75.9941 55.5578 74.6236 55.7309C73.2679 55.9021 71.8964 55.9887 70.857 56.0322C69.8194 56.0757 69.1249 56.0758 69.1263 56.0758L69.301 58.0682ZM67.3347 35.5967C67.944 35.5967 68.5577 35.7162 69.1409 35.9485L69.7453 34.1078C68.9106 33.7754 68.0323 33.6043 67.1604 33.6043L67.3347 35.5967ZM64.1726 36.9504C64.9669 36.0836 66.1043 35.5967 67.3347 35.5967L67.1604 33.6043C65.3996 33.6043 63.7718 34.3011 62.6352 35.5415L64.1726 36.9504ZM63.0997 40.2184C62.9925 38.9926 63.3784 37.8171 64.1726 36.9504L62.6352 35.5415C61.4986 36.7819 60.9463 38.4642 61.0997 40.2184H63.0997ZM64.7445 43.4864C63.7986 42.6196 63.207 41.4441 63.0997 40.2184H61.0997C61.2532 41.9725 62.0999 43.6548 63.4535 44.8952L64.7445 43.4864ZM68.1434 44.8401C66.913 44.8401 65.6904 44.3531 64.7445 43.4864L63.4535 44.8952C64.8071 46.1356 66.5569 46.8325 68.3177 46.8325L68.1434 44.8401ZM69.888 44.4882C69.3455 44.7205 68.7526 44.8401 68.1434 44.8401L68.3177 46.8325C69.1896 46.8325 70.038 46.6614 70.8145 46.3289L69.888 44.4882ZM71.3055 43.4864C70.9123 43.9155 70.4306 44.256 69.8881 44.4882L70.8144 46.329C71.5909 45.9966 72.2802 45.5094 72.843 44.8952L71.3055 43.4864ZM72.18 41.987C71.9959 42.5478 71.6988 43.0572 71.3055 43.4864L72.843 44.8952C73.4058 44.281 73.831 43.5519 74.0945 42.7495L72.18 41.987ZM72.3784 40.2184C72.4315 40.8253 72.3641 41.4263 72.18 41.9871L74.0945 42.7494C74.3579 41.947 74.4544 41.087 74.3784 40.2184H72.3784ZM71.8705 38.4497C72.1527 39.0104 72.3253 39.6114 72.3784 40.2184H74.3784C74.3024 39.3498 74.0554 38.4897 73.6516 37.6873L71.8705 38.4497ZM70.7337 36.9504C71.202 37.3795 71.5883 37.889 71.8706 38.4497L73.6516 37.6872C73.2477 36.8848 72.6949 36.1557 72.0246 35.5415L70.7337 36.9504ZM69.1409 35.9485C69.7241 36.1807 70.2653 36.5212 70.7337 36.9504L72.0246 35.5415C71.3544 34.9274 70.5798 34.4401 69.7452 34.1078L69.1409 35.9485Z" fill="white" fill-opacity="0.32" mask="url(#path-5-inside-1_16_319)"/>
<path d="M55.8759 59.3191L64.7572 50.3304L65.1504 54.8248C69.0171 54.8248 76.7514 54.8248 82.1583 50.3304C83.1413 61.5663 69.8035 63.8134 65.9368 63.8134L66.33 68.3077L55.8759 59.3191Z" fill="url(#paint4_linear_16_319)"/>
<defs>
<linearGradient id="paint0_linear_16_319" x1="54.2301" y1="47.3357" x2="54.2301" y2="100.459" gradientUnits="userSpaceOnUse">
<stop stop-color="#D1D1D1"/>
<stop offset="1" stop-color="#BABABA"/>
</linearGradient>
<linearGradient id="paint1_linear_16_319" x1="54.5" y1="52.8853" x2="54.5" y2="92.8853" gradientUnits="userSpaceOnUse">
<stop stop-color="white" stop-opacity="0"/>
<stop offset="1" stop-color="white" stop-opacity="0.33"/>
</linearGradient>
<linearGradient id="paint2_linear_16_319" x1="53.8652" y1="14.2852" x2="53.8652" y2="78.3308" gradientUnits="userSpaceOnUse">
<stop/>
<stop offset="0.415" stop-color="#585858"/>
<stop offset="1"/>
</linearGradient>
<linearGradient id="paint3_linear_16_319" x1="67.0815" y1="25.6118" x2="53.5577" y2="59.1485" gradientUnits="userSpaceOnUse">
<stop stop-color="#80FFE9"/>
<stop offset="1" stop-color="#9AB5FF"/>
</linearGradient>
<linearGradient id="paint4_linear_16_319" x1="66.5" y1="58.8853" x2="84.3446" y2="54.9465" gradientUnits="userSpaceOnUse">
<stop stop-color="white"/>
<stop offset="1" stop-color="#999999"/>
</linearGradient>
</defs>
</svg>
