<svg width="18" height="22" viewBox="0 0 18 22" fill="none" xmlns="http://www.w3.org/2000/svg">
<path fill-rule="evenodd" clip-rule="evenodd" d="M0.155762 5.33387C0.155762 3.67701 1.49891 2.33387 3.15576 2.33387H5.52356V4.33387H3.15576C2.60348 4.33387 2.15576 4.78158 2.15576 5.33387V17.627C2.15576 18.7316 3.05119 19.627 4.15576 19.627H13.8964C15.001 19.627 15.8964 18.7316 15.8964 17.627V5.33387C15.8964 4.78158 15.4487 4.33387 14.8964 4.33387H12.5876V2.33387H14.8964C16.5533 2.33387 17.8964 3.67701 17.8964 5.33387V17.627C17.8964 19.8361 16.1056 21.627 13.8964 21.627H4.15576C1.94662 21.627 0.155762 19.8361 0.155762 17.627V5.33387Z" fill="black"/>
<path fill-rule="evenodd" clip-rule="evenodd" d="M5.04059 9.71471C5.04059 9.16242 5.4883 8.71471 6.04059 8.71471H11.9592C12.5115 8.71471 12.9592 9.16242 12.9592 9.71471C12.9592 10.267 12.5115 10.7147 11.9592 10.7147H6.04059C5.4883 10.7147 5.04059 10.267 5.04059 9.71471Z" fill="black"/>
<path fill-rule="evenodd" clip-rule="evenodd" d="M5.04059 14.2462C5.04059 13.6939 5.4883 13.2462 6.04059 13.2462H9.69672C10.249 13.2462 10.6967 13.6939 10.6967 14.2462C10.6967 14.7985 10.249 15.2462 9.69672 15.2462H6.04059C5.4883 15.2462 5.04059 14.7985 5.04059 14.2462Z" fill="black"/>
<path fill-rule="evenodd" clip-rule="evenodd" d="M4.49988 2.16797C4.49988 1.0634 5.39531 0.167969 6.49988 0.167969H11.4999C12.6044 0.167969 13.4999 1.0634 13.4999 2.16797V3.83259C13.4999 4.93716 12.6044 5.83259 11.4999 5.83259H6.49988C5.39531 5.83259 4.49988 4.93716 4.49988 3.83259V2.16797ZM11.4999 2.16797L6.49988 2.16797V3.83259L11.4999 3.83259V2.16797Z" fill="black"/>
</svg>
