<svg width="22" height="22" viewBox="0 0 22 22" fill="none" xmlns="http://www.w3.org/2000/svg">
<path d="M21.0263 6.4752C21.2762 7.02894 20.961 7.65553 20.3851 7.8489C19.8092 8.04227 19.1917 7.72809 18.928 7.18078C18.4211 6.12859 17.7082 5.18437 16.8276 4.4061C15.6712 3.38416 14.2665 2.68427 12.7543 2.37663C11.2421 2.069 9.67553 2.16444 8.21184 2.65338C6.74815 3.14232 5.43877 4.00756 4.41506 5.16232C3.39135 6.31707 2.6893 7.72073 2.37934 9.23248C2.06938 10.7442 2.16241 12.3109 2.6491 13.7753C3.13579 15.2398 3.99903 16.5505 5.15221 17.576C6.03043 18.3569 7.0533 18.9516 8.15867 19.3287C8.73364 19.5248 9.11958 20.1002 8.99664 20.6952C8.8737 21.2901 8.2894 21.6781 7.7097 21.4964C6.22784 21.0319 4.85694 20.2575 3.69026 19.22C2.24878 17.9381 1.16974 16.2997 0.561377 14.4692C-0.0469867 12.6386 -0.163277 10.6803 0.224171 8.79059C0.611619 6.90091 1.48918 5.14634 2.76882 3.7029C4.04847 2.25945 5.68519 1.17789 7.5148 0.566719C9.34441 -0.0444564 11.3026 -0.163755 13.1929 0.22079C15.0831 0.605335 16.839 1.4802 18.2845 2.75762C19.4543 3.79153 20.3875 5.05971 21.0263 6.4752Z" fill="black"/>
<path fill-rule="evenodd" clip-rule="evenodd" d="M10.9868 7.95398C9.63116 7.95398 8.53223 9.05292 8.53223 10.4085V11.4994C8.53223 12.855 9.63116 13.954 10.9868 13.954C12.3424 13.954 13.4413 12.855 13.4413 11.4994V10.4085C13.4413 9.05292 12.3424 7.95398 10.9868 7.95398ZM10.9868 9.59035C11.4386 9.59035 11.805 9.95666 11.805 10.4085V11.4994C11.805 11.9513 11.4386 12.3176 10.9868 12.3176C10.5349 12.3176 10.1686 11.9513 10.1686 11.4994V10.4085C10.1686 9.95666 10.5349 9.59035 10.9868 9.59035Z" fill="black"/>
<path fill-rule="evenodd" clip-rule="evenodd" d="M18.4411 14.454C17.0855 14.454 15.9866 15.5529 15.9866 16.9085V17.9994C15.9866 19.355 17.0855 20.454 18.4411 20.454C19.7967 20.454 20.8957 19.355 20.8957 17.9994V16.9085C20.8957 15.5529 19.7967 14.454 18.4411 14.454ZM18.4411 16.0903C18.893 16.0903 19.2593 16.4567 19.2593 16.9085V17.9994C19.2593 18.4513 18.893 18.8176 18.4411 18.8176C17.9893 18.8176 17.6229 18.4513 17.6229 17.9994V16.9085C17.6229 16.4567 17.9893 16.0903 18.4411 16.0903Z" fill="black"/>
<path d="M18.5721 9.14338C19.0198 9.46674 19.1206 10.0918 18.7973 10.5395L12.2972 19.5395C11.9738 19.9872 11.3487 20.088 10.901 19.7646C10.4533 19.4413 10.3525 18.8162 10.6758 18.3685L17.1759 9.36855C17.4993 8.92083 18.1244 8.82001 18.5721 9.14338Z" fill="black"/>
</svg>
