<svg width="24" height="20" viewBox="0 0 24 20" fill="none" xmlns="http://www.w3.org/2000/svg">
<path fill-rule="evenodd" clip-rule="evenodd" d="M11.9998 0.0996094C14.0057 0.0996094 15.8063 0.910869 17.1049 2.05996C18.1298 2.96682 18.9093 4.14852 19.1794 5.39497C20.1895 5.53263 21.1304 5.90792 21.8817 6.52944C22.8708 7.34776 23.471 8.5472 23.471 9.9998C23.471 11.4525 22.8708 12.6519 21.8817 13.4702C21.1406 14.0833 20.2149 14.4568 19.2204 14.599C19.0024 16.1973 18.2209 17.4766 17.0522 18.3762C15.6949 19.421 13.89 19.9004 11.9998 19.9004C11.4475 19.9004 10.9998 19.4527 10.9998 18.9004C10.9998 18.3481 11.4475 17.9004 11.9998 17.9004C13.5793 17.9004 14.9157 17.4969 15.8323 16.7914C16.6626 16.1523 17.2106 15.2217 17.2759 13.9284L17.2824 13.6649V6.33513C17.2824 5.49337 16.7733 4.43712 15.7796 3.55776C14.8043 2.69476 13.4636 2.09961 11.9998 2.09961C10.5359 2.09961 9.19526 2.69476 8.21999 3.55776C7.29247 4.3785 6.78719 5.35332 6.72394 6.16403L6.71716 6.33513V13.6649C6.71716 14.1777 6.33112 14.6004 5.83378 14.6582L5.71716 14.6649L5.69674 14.6647C4.36123 14.6607 3.08327 14.2686 2.11824 13.4702C1.12912 12.6519 0.528931 11.4525 0.528931 9.9998C0.528931 8.5472 1.12912 7.34776 2.11824 6.52944C2.86941 5.90799 3.81018 5.53271 4.82011 5.39502C5.09023 4.14855 5.86976 2.96683 6.89462 2.05996C8.19321 0.910869 9.99388 0.0996094 11.9998 0.0996094ZM4.71716 7.44447C4.18793 7.56656 3.73817 7.78498 3.39313 8.0704C2.86634 8.5063 2.52893 9.1392 2.52893 9.9998C2.52893 10.8604 2.86634 11.4934 3.39313 11.9292C3.73817 12.2147 4.18793 12.4331 4.71716 12.5552V7.44447ZM19.2824 7.44439V12.5553C19.8118 12.4332 20.2617 12.2147 20.6068 11.9292C21.1336 11.4934 21.471 10.8604 21.471 9.9998C21.471 9.1392 21.1336 8.5063 20.6068 8.0704C20.2617 7.78492 19.8118 7.56646 19.2824 7.44439Z" fill="black"/>
</svg>
