<svg width="22" height="22" viewBox="0 0 22 22" fill="none" xmlns="http://www.w3.org/2000/svg">
<path fill-rule="evenodd" clip-rule="evenodd" d="M0 11C0 4.92472 4.92472 0 11 0C17.0753 0 22 4.92472 22 11C22 17.0753 17.0753 22 11 22C4.92472 22 0 17.0753 0 11ZM11 2C6.02928 2 2 6.02928 2 11C2 15.9707 6.02928 20 11 20C15.9707 20 20 15.9707 20 11C20 6.02928 15.9707 2 11 2Z" fill="black"/>
<path fill-rule="evenodd" clip-rule="evenodd" d="M8.52513 5.52513C9.1815 4.86875 10.0717 4.5 11 4.5C11.9283 4.5 12.8185 4.86875 13.4749 5.52513C14.1313 6.1815 14.5 7.07174 14.5 8C14.5 8.92826 14.1313 9.8185 13.4749 10.4749C12.8185 11.1313 11.9283 11.5 11 11.5C10.0717 11.5 9.1815 11.1313 8.52513 10.4749C7.86875 9.8185 7.5 8.92826 7.5 8C7.5 7.07174 7.86875 6.1815 8.52513 5.52513ZM11 6.5C10.6022 6.5 10.2206 6.65804 9.93934 6.93934C9.65804 7.22064 9.5 7.60218 9.5 8C9.5 8.39783 9.65804 8.77936 9.93934 9.06066C10.2206 9.34196 10.6022 9.5 11 9.5C11.3978 9.5 11.7794 9.34196 12.0607 9.06066C12.342 8.77936 12.5 8.39783 12.5 8C12.5 7.60218 12.342 7.22064 12.0607 6.93934C11.7794 6.65804 11.3978 6.5 11 6.5Z" fill="black"/>
<path fill-rule="evenodd" clip-rule="evenodd" d="M8.99974 14.5C6.88103 14.5 5.14611 16.1484 5.00857 18.2319C4.97219 18.783 4.49596 19.2002 3.94487 19.1638C3.39379 19.1274 2.97653 18.6512 3.01291 18.1001C3.21937 14.9726 5.82045 12.5 8.99974 12.5H12.9997C16.1748 12.5 18.7735 14.966 18.9859 18.0876C19.0234 18.6386 18.6072 19.1157 18.0561 19.1532C17.5051 19.1907 17.0281 18.7744 16.9906 18.2234C16.849 16.144 15.1157 14.5 12.9997 14.5H8.99974Z" fill="black"/>
</svg>
