<svg width="17" height="16" viewBox="0 0 17 16" fill="none" xmlns="http://www.w3.org/2000/svg">
<path d="M8.76528 9.22164C8.50493 8.96129 8.50493 8.53918 8.76528 8.27883C9.42816 7.61595 9.42386 6.58039 8.80895 5.96547C8.80107 5.9576 8.79343 5.94957 8.78603 5.94141C8.77901 5.93496 8.7721 5.92834 8.7653 5.92154L5.71864 2.87487C5.10368 2.25992 4.06813 2.25563 3.40525 2.9185C2.74239 3.58138 2.74667 4.61695 3.36161 5.2319L6.00671 7.877C6.26706 8.13735 6.26706 8.55946 6.00671 8.81981C5.74636 9.08016 5.32425 9.08016 5.0639 8.81981L2.4188 6.17471C1.25948 5.01538 1.3029 3.13528 2.46244 1.9757C3.62203 0.816103 5.50213 0.772751 6.66144 1.93206L9.70811 4.97873C9.71599 4.98661 9.72363 4.99463 9.73103 5.0028C9.73805 5.00924 9.74496 5.01587 9.75175 5.02266C10.911 6.18195 10.8677 8.06205 9.70809 9.22164C9.44774 9.48199 9.02563 9.48199 8.76528 9.22164Z" fill="white"/>
<path d="M8.23772 6.79492C8.49807 7.05526 8.49807 7.47737 8.23772 7.73772C7.57484 8.4006 7.57914 9.43617 8.19405 10.0511C8.20193 10.059 8.20957 10.067 8.21697 10.0751C8.22398 10.0816 8.23089 10.0882 8.23769 10.095L11.2844 13.1417C11.8993 13.7566 12.9349 13.7609 13.5977 13.0981C14.2606 12.4352 14.2563 11.3996 13.6414 10.7847L10.9963 8.13956C10.7359 7.87921 10.7359 7.4571 10.9963 7.19675C11.2566 6.9364 11.6787 6.9364 11.9391 7.19675L14.5842 9.84185C15.7435 11.0012 15.7001 12.8813 14.5406 14.0409C13.381 15.2005 11.5009 15.2438 10.3416 14.0845L7.29488 11.0378C7.28701 11.0299 7.27937 11.0219 7.27197 11.0138C7.26495 11.0073 7.25804 11.0007 7.25124 10.9939C6.09196 9.83461 6.13532 7.9545 7.29491 6.79492C7.55526 6.53456 7.97737 6.53456 8.23772 6.79492Z" fill="white"/>
</svg>
