<svg width="16" height="14" viewBox="0 0 16 14" fill="none" xmlns="http://www.w3.org/2000/svg">
<path fill-rule="evenodd" clip-rule="evenodd" d="M4.8316 0.227673C5.07406 -0.0494184 5.49523 -0.0774967 5.77233 0.164958L7.86953 2.00001H8.13045L10.2277 0.164958C10.5047 -0.0774967 10.9259 -0.0494184 11.1684 0.227673C11.4108 0.504764 11.3827 0.925939 11.1057 1.16839L10.1552 2.00001H13.3333C14.4379 2.00001 15.3333 2.89544 15.3333 4.00001V4.66668C15.3333 5.28796 14.9084 5.80999 14.3333 5.958V11.3333C14.3333 12.8061 13.1394 14 11.6667 14H4.33332C2.86056 14 1.66666 12.8061 1.66666 11.3333V5.958C1.09158 5.80999 0.666656 5.28796 0.666656 4.66668V4.00001C0.666656 2.89544 1.56209 2.00001 2.66666 2.00001H5.84474L4.89432 1.16839C4.61723 0.925939 4.58915 0.504764 4.8316 0.227673ZM8.66666 6.00001H13V11.3333C13 12.0697 12.403 12.6667 11.6667 12.6667H8.66666V6.00001ZM2.99999 6.00001H7.33332V12.6667H4.33332C3.59694 12.6667 2.99999 12.0697 2.99999 11.3333V6.00001ZM14 4.66668H1.99999V4.00001C1.99999 3.63182 2.29847 3.33334 2.66666 3.33334H13.3333C13.7015 3.33334 14 3.63182 14 4.00001V4.66668Z" fill="#FFE485"/>
</svg>
